
<svg xmlns="http://www.w3.org/2000/svg" version="1.1" xmlns:xlink="http://www.w3.org/1999/xlink" preserveAspectRatio="none" x="0px" y="0px" width="500px" height="500px" viewBox="0 0 500 500">
<defs>
<g id="Layer0_0_FILL">
<path fill="#271343" stroke="none" d="
M 463.7 33.05
Q 457.9 29.8 451.05 29.8
L 145.95 29.8
Q 137.6 29.8 131.2 34.35 124.7 38.9 123.2 45.9
L 38.25 449.3
Q 37.1 455 39.8 460.4 42.55 465.75 48.35 469 54.15 472.2 61 472.2
L 366.1 472.2
Q 374.45 472.2 380.9 467.65 387.35 463.1 388.8 456.15
L 473.75 52.75
Q 474.95 47 472.25 41.65 469.5 36.25 463.7 33.05
M 88.55 433.2
L 165.3 68.8 423.55 68.8 346.75 433.2 88.55 433.2
M 342.1 190.85
L 328.2 175.95
Q 327.95 175.7 327.7 175.5 325.65 173.7 323.2 173.1 322.85 173 322.55 172.95 319 172.25 315.6 173.3 315.45 173.3 315.4 173.35 312 174.25 309.45 176.4
L 247.55 226.7 232.4 210.3 232.5 210.45
Q 230.6 208.2 227.2 207.4 223.85 206.55 220.3 207.45 216.6 208.25 213.65 210.75
L 193.9 226.8
Q 190 229.85 189.3 234.15 188.65 238.2 191.35 241.1 191.4 241.15 191.5 241.2
L 228.35 280.8
Q 228.4 280.85 228.45 280.9 230.35 282.95 233.8 283.7 233.9 283.7 233.95 283.75 237.05 284.45 240.75 283.5
L 240.6 283.5
Q 243.85 282.75 246.8 280.5 246.9 280.4 247.1 280.3
L 339.55 205.15
Q 343.45 201.9 344.05 197.85 344.6 194.1 342.45 191.25 342.25 191.05 342.1 190.85
M 310.9 198.85
L 310.9 198.8
Q 311 198.85 311.05 198.95
L 310.9 198.85 Z"/>

<path fill="#FFFFFF" stroke="none" d="
M 165.3 68.8
L 88.55 433.2 346.75 433.2 423.55 68.8 165.3 68.8
M 328.2 175.95
L 342.1 190.85
Q 342.25 191.05 342.45 191.25 344.6 194.1 344.05 197.85 343.45 201.9 339.55 205.15
L 247.1 280.3
Q 246.9 280.4 246.8 280.5 243.85 282.75 240.6 283.5
L 240.75 283.5
Q 237.05 284.45 233.95 283.75 233.9 283.7 233.8 283.7 230.35 282.95 228.45 280.9 228.4 280.85 228.35 280.8
L 191.5 241.2
Q 191.4 241.15 191.35 241.1 188.65 238.2 189.3 234.15 190 229.85 193.9 226.8
L 213.65 210.75
Q 216.6 208.25 220.3 207.45 223.85 206.55 227.2 207.4 230.6 208.2 232.5 210.45
L 232.4 210.3 247.55 226.7 309.45 176.4
Q 312 174.25 315.4 173.35 315.45 173.3 315.6 173.3 319 172.25 322.55 172.95 322.85 173 323.2 173.1 325.65 173.7 327.7 175.5 327.95 175.7 328.2 175.95 Z"/>
</g>

<path id="Layer0_0_1_STROKES" stroke="#FFFFFF" stroke-width="18" stroke-linejoin="round" stroke-linecap="round" fill="none" d="
M 451.05 29.8
L 145.95 29.8
Q 137.6 29.8 131.2 34.35 124.7 38.9 123.2 45.9
L 38.25 449.3
Q 37.1 455 39.8 460.4 42.55 465.75 48.35 469 54.15 472.2 61 472.2
L 366.1 472.2
Q 374.45 472.2 380.9 467.65 387.35 463.1 388.8 456.15
L 473.75 52.75
Q 474.95 47 472.25 41.65 469.5 36.25 463.7 33.05 457.9 29.8 451.05 29.8 Z"/>
</defs>

<g transform="matrix( 1, 0, 0, 1, 0,0) ">
<use xlink:href="#Layer0_0_FILL"/>

<use xlink:href="#Layer0_0_1_STROKES"/>
</g>
</svg>
