
<svg xmlns="http://www.w3.org/2000/svg" version="1.1" xmlns:xlink="http://www.w3.org/1999/xlink" preserveAspectRatio="none" x="0px" y="0px" width="815px" height="725px" viewBox="0 0 815 725">
<defs>
<g id="Layer2_0_FILL">
<path fill="#FFFFFF" stroke="none" d="
M 673.55 280.15
L 673.6 280.15
Q 647.55 254 613.25 248
L 606.95 229.4 607.1 229.75 589.05 172.7
Q 588.1 169.95 586.95 167.25 580.7 136.2 527.4 125.45
L 534.85 65.5
Q 536.9431640625 48.65546875 528.65 33.8 528.62734375 33.748828125 528.6 33.7 524.9486328125 27.1779296875 519.9 22.2 519.8501953125 22.1498046875 519.8 22.1 513.3828125 15.669921875 504.75 11.8
L 504.9 11.85
Q 489.3 4.65 472.6 8.25 472.55 8.25 472.5 8.25
L 319.65 40.25 319.6 40.25
Q 303.15 43.7 291.85 56.15 281.587890625 67.4611328125 279.05 82.35 278.8212890625 83.78359375 278.65 85.25
L 278.65 85.35 274.35 123.85
Q 204.9 133.75 199.35 181
L 178.35 246.15 156.25 246.15
Q 141.55 246 128.95 254.6 128.8 254.7 128.65 254.8
L 128.4 255
Q 115.45 263.9 110.35 279.1 110.25 279.2 110.25 279.4 105.15 293.8 109.95 309.05
L 110.05 309.4
Q 110.1 309.5 110.15 309.65
L 137.85 395.1 104.25 395.1
Q 86.2 395.35 72.9 406.75
L 72.95 406.8
Q 72.1 407.45 71.35 408.15 59.55 418.95 56.75 434.65 56.75 434.7 56.75 434.8
L 39.15 528.75
Q 38.6 531.1 38.25 533.5
L 20.35 628.1
Q 17 643.65 23.95 658.45
L 23.9 658.3
Q 26.95 664.9 31.65 670.2 32.05 670.6 32.45 671.05 34.85 673.6 37.65 675.8
L 69.35 704.65
Q 72.3 707.9 76.05 710.6 76.2 710.7 76.35 710.85 76.5 710.95 76.65 711.05 78 712.1 79.5 712.95 90.4 719.5 103.9 719.3 104.05 719.3 104.25 719.3 104.6 719.3 105.05 719.3 126.95 718.15 148.9 717.3
L 149.15 717.3
Q 149.55 717.3 150.05 717.3 164.6 716.7 176.4 707.2
L 176.6 707.05
Q 177.1 706.6 177.65 706.2 178.1 705.75 178.55 705.35
L 178.6 705.3
Q 178.95 705.6 179.35 705.9 179.45 706 179.65 706.1
L 178.65 705.25
Q 184.45 699.9 187.95 693.15 187.85 694.4 187.85 695.7 187.95 703.8 193.8 709.6 199.3 715 206.85 715.35
L 208.2 715.35
Q 208.35 715.35 208.55 715.35 208.65 715.35 208.75 715.35 208.9 715.35 209.05 715.35
L 209.55 715.35
Q 232.55 714.55 255.6 713.95 255.65 713.95 255.7 713.95 268.7 714 280.15 706.4 280.3 706.3 280.45 706.2 281.1 705.75 281.8 705.3 287.85 700.85 291.95 695.1 295.6 699.8 300.75 703.65 301 703.8 301.25 703.95 301.65 704.3 302.15 704.65 313.55 712.45 327.7 712.6
L 328.35 712.6
Q 351.2 712.3 373.95 712.15
L 374.1 712.15
Q 387.85 712.15 399.45 704.3 400.3 703.7 401.2 703.05 401.2 703 401.25 703 401.65 702.65 402.1 702.3 402.4 702.05 402.7 701.85 425.7 712 452.8 712
L 452.9 712
Q 467 712.05 480 709.25 480.2 709.2 480.45 709.15 480.55 709.1 480.7 709.1 491.3 706.75 501.3 702.6
L 512.5 699
Q 513.15 699.9 513.95 700.7
L 514.1 700.85
Q 515.05 701.8 516.2 702.7 527.5 712.55 543.35 713.35 543.85 713.35 544.3 713.35 544.35 713.35 544.4 713.35 566.5 713.8 588.6 714.35 595.75 714.6 602.5 712.6 608.5 714.7 615.25 715.05 615.75 715.05 616.2 715.05 639.45 715.75 662.8 716.65 663 716.65 663.25 716.7
L 713.1 719.9 713.25 719.95
Q 725.85 720.65 737.1 714.65 737.25 714.55 737.45 714.5 737.9 714.25 738.35 714 739 713.6 739.65 713.2 742.55 711.4 745.15 709.25
L 786.4 680.3
Q 786.5 680.25 786.6 680.2 787 679.95 787.4 679.7 790.7 677.6 793.6 675.1 794.15 674.6 794.7 674.1 794.8 674 794.9 673.95 801.8 667.5 805.95 658.2 806.00625 658.059375 806.05 657.95 806.45 657.1 806.8 656.2 812.3 642 808.9 627.85 808.85 627.75 808.85 627.7
L 797 576.6
Q 796.95 576.45 796.9 576.25 793 560.8 781.7 551.4
L 781.7 551.35
Q 769.05 540.25 752.6 539.5 752.35 539.5 752.15 539.5
L 734.05 538.3 722.75 473
Q 722.7 472.4 722.6 471.8
L 716.9 436
Q 716.8 435.5 716.7 434.95 713.65 418.65 701.7 407.85
L 701.5 407.7
Q 700.9 407.15 700.3 406.65
L 699.8 406.25
Q 699.35 405.9 698.95 405.55
L 698.95 405.5
Q 707.2 385.3 707.25 361.65 707.25 344.937890625 703.1 329.95 695.467578125 302.067578125 673.55 280.15
M 808.45 626.3
Q 808.4 626.2 808.4 626.15
L 808.35 625.9 808.45 626.3
M 109.15 303.65
L 109.1 303.3 109.15 303.45
Q 109.15 303.55 109.15 303.65
M 296.9 686
Q 296.95 685.85 297 685.7
L 297.8 683.75 300.9 686.05 296.85 686.05 296.9 686 Z"/>
</g>

<g id="Layer1_0_FILL">
<path fill="#271343" stroke="none" d="
M 687.25 361.65
Q 687.25 344.736328125 682.15 329.95 675.3248046875 310.203515625 659.4 294.25 633.75 268.5 598.35 266.4
L 588 235.8 570.05 179
Q 569.15 176.3 567.85 173.7 561.05 148.75 505.15 142.2
L 515 63.05
Q 516.3 52.65 511.15 43.5 506 34.35 496.5 30 486.95 25.6 476.7 27.8
L 323.75 59.8
Q 313.6 61.95 306.65 69.6 301.5154296875 75.2517578125 299.5 82.35 298.8134765625 84.8595703125 298.5 87.55
L 292.4 142.05
Q 291.9 142.05 291.4 142.1 225.2 147.25 218.95 185.35
L 192.9 266.1 156.25 266.15
Q 147.5 266.05 140.05 271.25 139.9 271.35 139.75 271.45 132.15 276.7 129.2 285.7 126.2 294.25 129.1 303.3
L 165.35 415.1 104.4 415.1
Q 93.6 415.2 85.7 422.1
L 86.3 421.65
Q 78.2 428.25 76.4 438.3
L 76.4 438.35 58.75 532.7
Q 58.3 534.6 58 536.55
L 40 631.8
Q 37.9 641.1 42.05 649.9 43.85 653.8 46.6 656.9 46.7 657 46.8 657.1 48.45 658.9 50.45 660.4
L 83.55 690.55
Q 85.4 692.7 87.8 694.45 88.3 694.8 88.8 695.15 89.05 695.35 89.35 695.5 95.8 699.55 103.9 699.3 103.95 699.3 104 699.3 126.45 698.15 148.9 697.3
L 149.15 697.3
Q 157.25 696.95 163.8 691.65 164.1 691.4 164.45 691.15 170.95 685.45 172.6 676.85
L 172.6 676.8 174.45 667.1
Q 185.65 685.55 191.75 690.2
L 191.9 690.35
Q 198.95 695.6 208.2 695.35
L 207.85 695.35
Q 231.5 694.55 255.2 693.95
L 255.6 693.95
Q 262.75 693.95 269.05 689.75 269.45 689.45 269.9 689.2 275.6 685 278.2 678.85 278.3 678.5 278.45 678.25
L 283.4 666.05 300.9 666.05 303.85 675.4
Q 306.2 682.75 312.7 687.6 313.1 687.85 313.45 688.15 319.85 692.55 327.8 692.6
L 328.1 692.6
Q 351.05 692.3 373.95 692.15 374 692.15 374.05 692.15 381.75 692.15 388.25 687.75 388.9 687.2 389.6 686.7 394.9 682.45 397.3 676.25 421.9 692.1 452.8 692
L 452.85 692
Q 464.8 692.05 475.8 689.7 476.1 689.6 476.4 689.55 485.55 687.55 494.1 683.9
L 521.1 675.2
Q 522.85 681.7 528.1 686.55
L 528.25 686.65
Q 528.4 686.85 528.65 687 535.1 692.9 544.3 693.35 544.55 693.35 544.8 693.35 566.95 693.8 589.1 694.35 596.3 694.6 602.7 690.8 602.85 690.7 603 690.6 608.85 694.7 616.2 695.05 616.45 695.05 616.6 695.05 640.3 695.75 664.05 696.7
L 714.35 699.95
Q 721.4 700.35 727.7 697 728.15 696.75 728.6 696.5 728.8 696.3 729.15 696.15 731.1 694.95 732.8 693.45
L 775.65 663.4
Q 775.85 663.25 776.1 663.15 776.3 662.95 776.7 662.8 778.75 661.5 780.55 659.95 780.7 659.8 780.9 659.6 785.15 655.75 787.65 650.1 787.9 649.5 788.15 649 791.35 640.7 789.4 632.45
L 777.5 581.1
Q 775.2 571.95 768.5 566.4 761.05 559.85 751.3 559.45
L 717 557.25 703 476.05
Q 702.9 475.5 702.85 474.95
L 697.15 439.15
Q 697.1 438.95 697.05 438.6 695.15 428.4 687.3 421.85
L 687.8 422.25
Q 680.4 415.75 671.1 415.15 687.25 391.75 687.25 361.65
M 739.7 643.75
L 739.6 643.5 739.6 643.45 739.7 643.75
M 696.45 679.35
L 696.35 679.1 696.35 679.05 696.45 679.35 Z"/>
</g>

<g id="Layer0_0_FILL">
<path fill="#FFFFFF" stroke="none" d="
M 530.7 469.05
L 530.7 469.1
Q 504.05 441.45 466.75 440.6
L 464.65 440.55
Q 464.55 440.55 464.5 440.55 464.3 440.55 464.05 440.55 463.8 440.55 463.6 440.55
L 461.2 440.6
Q 423.95 441.5 397.35 469.1 397.2 469.2 397.1 469.35 370.25 497.2 370.2 536.6 370.25 575.8 397 603.7 397.15 603.95 397.35 604.15 425 632.65 464.05 632.6 503.1 632.65 530.7 604.15 538.85 595.75 544.55 586.35 545.15 585.35 544.9 584.2 544.65 583.05 543.75 582.4
L 503 552.75
Q 502.2 552.2 501.3 552.15 500.4 552.1 499.65 552.6 498.85 553.1 498.5 553.95 495.75 559.95 490.9 565.1 490.7 565.2 490.55 565.4 479.6 576.75 464.05 576.8 448.5 576.75 437.5 565.4 426 553.5 426.05 536.6 426 519.75 437.5 507.9 448.5 496.45 464.05 496.4 479.55 496.45 490.55 507.9 490.7 508.05 490.95 508.25 494.65 512.2 497.2 516.7 497.6 517.5 498.4 517.9 499.15 518.3 500.05 518.25 500.95 518.15 501.65 517.65
L 541.45 487.2
Q 542.35 486.45 542.55 485.3 542.75 484.15 542.1 483.15 537.15 475.7 530.7 469.05
M 600.55 441.4
Q 599.65 440.6 598.5 440.6
L 548.25 440.6
Q 547.4 440.6 546.7 441.05 545.95 441.5 545.55 442.3 545.2 443.05 545.3 443.9
L 546.55 456.15
Q 546.5 457.8 546.75 459.7
L 565.75 631.45
Q 565.85 632.55 566.7 633.3 567.5 634.05 568.65 634.1 593.8 634.6 618.9 635.25 619.75 635.3 620.5 634.85 621.25 634.35 621.65 633.6 622.05 632.8 621.95 631.95
L 605.35 481.6 605.35 481.55
Q 604.55 474.55 603.85 467.65
L 601.5 443.35
Q 601.35 442.15 600.55 441.4
M 218.8 441.1
Q 218.05 440.6 217.15 440.6
L 104.4 440.6
Q 103.3 440.6 102.5 441.3 101.65 442 101.45 443.05
L 83.7 538.1
Q 83.35 539.3 83.2 540.5
L 64.9 637.3
Q 64.7 638.2 65.1 639.05 65.5 639.9 66.3 640.4 67.05 640.9 68 640.85 93.55 639.6 119.15 638.6 120.15 638.55 120.95 637.9 121.75 637.2 121.95 636.15
L 133.95 572.85 186.25 572.85
Q 187.35 572.85 188.2 572.15 189 571.45 189.2 570.4
L 198.3 520.55
Q 198.45 519.65 198.1 518.85 197.75 518 197 517.5 196.25 517 195.35 517
L 144.5 517 147.75 499.75 207.8 499.75
Q 208.9 499.75 209.75 499.05 210.55 498.35 210.75 497.3
L 220.1 444.15
Q 220.25 443.25 219.9 442.45 219.55 441.6 218.8 441.1
M 317.55 442.7
Q 317.25 441.75 316.5 441.2 315.7 440.6 314.7 440.6
L 262.95 440.6
Q 262.05 440.6 261.3 441.15 260.5 441.65 260.2 442.5
L 211.3 563 211.25 563.15
Q 210.3 564.85 209.75 566.8
L 183.15 632.25
Q 182.75 633.2 183.05 634.2 183.3 635.15 184.15 635.8 184.95 636.4 186 636.35 213.2 635.45 240.4 634.8 241.25 634.8 242 634.3 242.75 633.75 243.1 632.95
L 255.15 603.2 310.75 603.2 319.7 631.2
Q 320 632.1 320.8 632.7 321.6 633.25 322.6 633.25 348.75 632.9 374.8 632.75 375.75 632.75 376.55 632.2 377.3 631.6 377.6 630.7 377.9 629.75 377.6 628.85
L 358.15 568.45
Q 357.7 566.7 357.05 565
L 317.55 442.7
M 286.1 527
L 292.75 547.4 277.85 547.4 286.1 527
M 153.4 293.75
Q 153.1 294.65 153.4 295.6
L 196.85 429.6
Q 197.15 430.5 197.95 431.1 198.7 431.65 199.7 431.65
L 249.4 431.65
Q 250.4 431.65 251.2 431.1 251.95 430.5 252.25 429.6
L 295.65 295.55
Q 295.95 294.6 295.65 293.7 295.35 292.75 294.55 292.2 293.75 291.6 292.8 291.6
L 253.8 291.6
Q 252.8 291.6 252.05 292.2 251.25 292.75 250.95 293.7
L 224.5 375.3 198.15 293.7
Q 197.85 292.75 197.1 292.2 196.3 291.6 195.3 291.6
L 156.25 291.65
Q 155.3 291.65 154.5 292.25 153.7 292.8 153.4 293.75
M 419.5 329.95
Q 414.589453125 320.389453125 406.4 312.2 385.9 291.65 356.95 291.65 328 291.65 307.55 312.2 299.3203125 320.389453125 294.35 329.95 287 344.2634765625 287 361.65 287 390.65 307.55 411.15 307.85 411.45 308.15 411.75 307.9 411.65 307.65 411.65 306.75 411.6 306 412.05
L 273.6 430.35
Q 272.7 430.85 272.3 431.8 271.9 432.75 272.15 433.75 272.4 434.7 273.25 435.35 274.05 435.95 275.05 435.95
L 314.5 435.95
Q 315.5 435.95 316.3 435.35 317.1 434.75 317.4 433.8 317.65 432.8 317.3 431.9
L 310.35 413.8
Q 329.95 431.6 356.95 431.6 385.9 431.6 406.4 411.15 426.85 390.65 426.85 361.65 426.85 344.2634765625 419.5 329.95
M 337.75 342.65
Q 345.6 334.7 356.75 334.7 367.9 334.7 375.8 342.65 383.65 350.5 383.65 361.65 383.65 372.8 375.8 380.75 367.9 388.6 356.75 388.6 345.6 388.6 337.75 380.75 329.85 372.8 329.85 361.65 329.85 350.5 337.75 342.65
M 481.45 59.7
Q 480.4 59.25 479.35 59.5
L 330.35 91.6
Q 329.25 91.8 328.5 92.65 327.7 93.45 327.6 94.6
L 317.7 173.5 312.25 217.4 468.2 217.4 472.35 175.6
Q 472.35 175.55 472.4 175.55
L 472.75 172.15 476 139.3
Q 476.45 134.8 476.9 130.25 476.9 130.1 476.95 129.9
L 483.55 63.25
Q 483.65 62.1 483.1 61.15 482.5 60.15 481.45 59.7
M 364.65 147.6
Q 365.2 146.95 365.95 146.7 366.75 146.45 367.55 146.65 368.35 146.9 368.9 147.5
L 388.35 167.7 432.5 116.5
Q 433 115.85 433.8 115.6 434.55 115.35 435.35 115.55 436.1 115.75 436.75 116.35
L 449.8 129.85
Q 450.5 130.65 450.55 131.75 450.6 132.85 449.85 133.7
L 391.15 201.8
Q 390.6 202.4 389.85 202.65 389.05 202.9 388.3 202.7 387.5 202.5 386.95 201.95
L 352.25 166
Q 351.45 165.2 351.4 164.1 351.35 163 352.1 162.15
L 364.65 147.6
M 670.9 441.35
Q 670.05 440.6 668.95 440.6
L 617.75 440.6
Q 616.85 440.6 616.1 441.1 615.35 441.6 615 442.45 614.65 443.25 614.8 444.15
L 627.2 515 647.25 633.55
Q 647.4 634.6 648.25 635.3 649.05 636 650.1 636.05 677.4 636.85 704.65 637.95
L 761.35 641.6
Q 762.3 641.65 763.15 641.15 763.95 640.65 764.35 639.75 764.7 638.85 764.5 637.95
L 752.75 587.25
Q 752.5 586.25 751.75 585.65 751 584.95 750 584.9
L 695.3 581.4 677.6 478.9 677.65 478.95 671.95 443.15
Q 671.75 442.05 670.9 441.35
M 661.75 361.65
Q 661.75 344.26796875 654.4 329.95 649.5015625 320.421484375 641.35 312.25 620.85 291.7 591.9 291.7 562.95 291.7 542.5 312.25 535 319.7 530.25 328.35
L 530.25 294.6
Q 530.25 293.35 529.4 292.5 528.5 291.6 527.25 291.6
L 427.4 291.6
Q 426.15 291.6 425.3 292.5 424.4 293.4 424.4 294.65
L 424.9 331.8
Q 424.9 333 425.8 333.9 426.65 334.75 427.9 334.75
L 455.45 334.75 455.45 428.65
Q 455.45 429.9 456.35 430.8 457.2 431.65 458.45 431.65
L 496.25 431.65
Q 497.5 431.65 498.4 430.8 499.25 429.9 499.25 428.65
L 499.25 334.75 527.15 334.75
Q 522 347.15 522 361.65 522 390.6 542.5 411.1 562.95 431.55 591.9 431.55 620.85 431.55 641.35 411.1 661.75 390.6 661.75 361.65
M 572.7 342.65
Q 580.55 334.75 591.7 334.75 602.85 334.75 610.75 342.65 618.6 350.5 618.6 361.65 618.6 372.8 610.75 380.7 602.85 388.55 591.7 388.55 580.55 388.55 572.7 380.7 564.8 372.8 564.8 361.65 564.8 350.5 572.7 342.65 Z"/>

<path fill="#271343" stroke="none" d="
M 365.95 146.7
Q 365.2 146.95 364.65 147.6
L 352.1 162.15
Q 351.35 163 351.4 164.1 351.45 165.2 352.25 166
L 386.95 201.95
Q 387.5 202.5 388.3 202.7 389.05 202.9 389.85 202.65 390.6 202.4 391.15 201.8
L 449.85 133.7
Q 450.6 132.85 450.55 131.75 450.5 130.65 449.8 129.85
L 436.75 116.35
Q 436.1 115.75 435.35 115.55 434.55 115.35 433.8 115.6 433 115.85 432.5 116.5
L 388.35 167.7 368.9 147.5
Q 368.35 146.9 367.55 146.65 366.75 146.45 365.95 146.7
M 432.25 132.5
L 432.1 132.4 432.1 132.35
Q 432.15 132.4 432.25 132.5
M 490.6 172.95
Q 489.75 172.9 488.9 172.85 482.05 172.35 472.75 172.15
L 472.4 175.55
Q 472.35 175.55 472.35 175.6
L 468.2 217.4 312.25 217.4 317.7 173.5
Q 306.1 173.2 296.5 173.85 295.2 173.9 293.95 174 291.55 174.2 289.35 174.45
L 286.2 203.95
Q 280.35 204.9 278.15 206.75 272.2 211.8 271.75 225.3
L 519.5 225.3
Q 521.35 212.65 510.15 206.05 505.95 203.55 498.8 202.7
L 502.1 174.1
Q 496.7 173.4 490.6 172.95 Z"/>

<path fill="#5C3D96" stroke="none" d="
M 539.5 188.6
Q 533.85 177.95 502.1 174.1
L 498.8 202.7
Q 505.95 203.55 510.15 206.05 521.35 212.65 519.5 225.3
L 271.75 225.3
Q 272.2 211.8 278.15 206.75 280.35 204.9 286.2 203.95
L 289.35 174.45
Q 254.85 178.1 249.4 195.15
L 229.05 258.6 561.6 258.6 539.5 188.6 Z"/>
</g>
</defs>

<g transform="matrix( 1, 0, 0, 1, 0,0) ">
<use xlink:href="#Layer2_0_FILL"/>
</g>

<g transform="matrix( 1, 0, 0, 1, 0,0) ">
<use xlink:href="#Layer1_0_FILL"/>
</g>

<g transform="matrix( 1, 0, 0, 1, 0,0) ">
<use xlink:href="#Layer0_0_FILL"/>
</g>
</svg>
